<mxfile host="app.diagrams.net" modified="2023-12-23T17:13:38.522Z" agent="Mozilla/5.0 (Windows NT 10.0; Win64; x64) AppleWebKit/537.36 (KHTML, like Gecko) Chrome/120.0.0.0 Safari/537.36" etag="kIjZcT6VdXkDfiDPEbR4" version="22.1.11" type="device">
  <diagram id="lJC5NsWpRPQFJsN7I2Rn" name="Page-1">
    <mxGraphModel dx="3000" dy="1734" grid="1" gridSize="10" guides="1" tooltips="1" connect="1" arrows="1" fold="1" page="1" pageScale="1" pageWidth="850" pageHeight="1100" math="0" shadow="0">
      <root>
        <mxCell id="0" />
        <mxCell id="1" parent="0" />
        <mxCell id="4Sj0Vmif-qSATWHUG_IZ-1" value="Usuario" style="swimlane;fontStyle=0;childLayout=stackLayout;horizontal=1;startSize=26;fillColor=none;horizontalStack=0;resizeParent=1;resizeParentMax=0;resizeLast=0;collapsible=1;marginBottom=0;" parent="1" vertex="1">
          <mxGeometry x="275" y="476" width="140" height="130" as="geometry" />
        </mxCell>
        <mxCell id="4Sj0Vmif-qSATWHUG_IZ-2" value="Nome&#xa;" style="text;strokeColor=none;fillColor=none;align=left;verticalAlign=top;spacingLeft=4;spacingRight=4;overflow=hidden;rotatable=0;points=[[0,0.5],[1,0.5]];portConstraint=eastwest;" parent="4Sj0Vmif-qSATWHUG_IZ-1" vertex="1">
          <mxGeometry y="26" width="140" height="26" as="geometry" />
        </mxCell>
        <mxCell id="4Sj0Vmif-qSATWHUG_IZ-3" value="Email" style="text;strokeColor=none;fillColor=none;align=left;verticalAlign=top;spacingLeft=4;spacingRight=4;overflow=hidden;rotatable=0;points=[[0,0.5],[1,0.5]];portConstraint=eastwest;" parent="4Sj0Vmif-qSATWHUG_IZ-1" vertex="1">
          <mxGeometry y="52" width="140" height="26" as="geometry" />
        </mxCell>
        <mxCell id="4Sj0Vmif-qSATWHUG_IZ-4" value="Senha" style="text;strokeColor=none;fillColor=none;align=left;verticalAlign=top;spacingLeft=4;spacingRight=4;overflow=hidden;rotatable=0;points=[[0,0.5],[1,0.5]];portConstraint=eastwest;" parent="4Sj0Vmif-qSATWHUG_IZ-1" vertex="1">
          <mxGeometry y="78" width="140" height="26" as="geometry" />
        </mxCell>
        <mxCell id="4d-j6Ib5iY2ZQ5GPLnCa-1" value="DtNascimento" style="text;strokeColor=none;fillColor=none;align=left;verticalAlign=top;spacingLeft=4;spacingRight=4;overflow=hidden;rotatable=0;points=[[0,0.5],[1,0.5]];portConstraint=eastwest;" vertex="1" parent="4Sj0Vmif-qSATWHUG_IZ-1">
          <mxGeometry y="104" width="140" height="26" as="geometry" />
        </mxCell>
        <mxCell id="4Sj0Vmif-qSATWHUG_IZ-5" value="Playlist" style="swimlane;fontStyle=0;childLayout=stackLayout;horizontal=1;startSize=26;fillColor=none;horizontalStack=0;resizeParent=1;resizeParentMax=0;resizeLast=0;collapsible=1;marginBottom=0;" parent="1" vertex="1">
          <mxGeometry x="648" y="496" width="140" height="104" as="geometry" />
        </mxCell>
        <mxCell id="4Sj0Vmif-qSATWHUG_IZ-6" value="Nome&#xa;" style="text;strokeColor=none;fillColor=none;align=left;verticalAlign=top;spacingLeft=4;spacingRight=4;overflow=hidden;rotatable=0;points=[[0,0.5],[1,0.5]];portConstraint=eastwest;" parent="4Sj0Vmif-qSATWHUG_IZ-5" vertex="1">
          <mxGeometry y="26" width="140" height="26" as="geometry" />
        </mxCell>
        <mxCell id="4d-j6Ib5iY2ZQ5GPLnCa-2" value="Publica" style="text;strokeColor=none;fillColor=none;align=left;verticalAlign=top;spacingLeft=4;spacingRight=4;overflow=hidden;rotatable=0;points=[[0,0.5],[1,0.5]];portConstraint=eastwest;" vertex="1" parent="4Sj0Vmif-qSATWHUG_IZ-5">
          <mxGeometry y="52" width="140" height="26" as="geometry" />
        </mxCell>
        <mxCell id="4d-j6Ib5iY2ZQ5GPLnCa-3" value="DtCriacao" style="text;strokeColor=none;fillColor=none;align=left;verticalAlign=top;spacingLeft=4;spacingRight=4;overflow=hidden;rotatable=0;points=[[0,0.5],[1,0.5]];portConstraint=eastwest;" vertex="1" parent="4Sj0Vmif-qSATWHUG_IZ-5">
          <mxGeometry y="78" width="140" height="26" as="geometry" />
        </mxCell>
        <mxCell id="4Sj0Vmif-qSATWHUG_IZ-9" value="Banda" style="swimlane;fontStyle=0;childLayout=stackLayout;horizontal=1;startSize=26;fillColor=none;horizontalStack=0;resizeParent=1;resizeParentMax=0;resizeLast=0;collapsible=1;marginBottom=0;" parent="1" vertex="1">
          <mxGeometry x="338" y="36" width="140" height="104" as="geometry" />
        </mxCell>
        <mxCell id="4Sj0Vmif-qSATWHUG_IZ-10" value="Nome" style="text;strokeColor=none;fillColor=none;align=left;verticalAlign=top;spacingLeft=4;spacingRight=4;overflow=hidden;rotatable=0;points=[[0,0.5],[1,0.5]];portConstraint=eastwest;" parent="4Sj0Vmif-qSATWHUG_IZ-9" vertex="1">
          <mxGeometry y="26" width="140" height="26" as="geometry" />
        </mxCell>
        <mxCell id="4Sj0Vmif-qSATWHUG_IZ-11" value="Descricao" style="text;strokeColor=none;fillColor=none;align=left;verticalAlign=top;spacingLeft=4;spacingRight=4;overflow=hidden;rotatable=0;points=[[0,0.5],[1,0.5]];portConstraint=eastwest;" parent="4Sj0Vmif-qSATWHUG_IZ-9" vertex="1">
          <mxGeometry y="52" width="140" height="26" as="geometry" />
        </mxCell>
        <mxCell id="4Sj0Vmif-qSATWHUG_IZ-12" value="Backdrop" style="text;strokeColor=none;fillColor=none;align=left;verticalAlign=top;spacingLeft=4;spacingRight=4;overflow=hidden;rotatable=0;points=[[0,0.5],[1,0.5]];portConstraint=eastwest;" parent="4Sj0Vmif-qSATWHUG_IZ-9" vertex="1">
          <mxGeometry y="78" width="140" height="26" as="geometry" />
        </mxCell>
        <mxCell id="4Sj0Vmif-qSATWHUG_IZ-13" value="Album" style="swimlane;fontStyle=0;childLayout=stackLayout;horizontal=1;startSize=26;fillColor=none;horizontalStack=0;resizeParent=1;resizeParentMax=0;resizeLast=0;collapsible=1;marginBottom=0;" parent="1" vertex="1">
          <mxGeometry x="658" y="62" width="140" height="52" as="geometry">
            <mxRectangle x="470" y="380" width="70" height="30" as="alternateBounds" />
          </mxGeometry>
        </mxCell>
        <mxCell id="4Sj0Vmif-qSATWHUG_IZ-14" value="Nome" style="text;strokeColor=none;fillColor=none;align=left;verticalAlign=top;spacingLeft=4;spacingRight=4;overflow=hidden;rotatable=0;points=[[0,0.5],[1,0.5]];portConstraint=eastwest;" parent="4Sj0Vmif-qSATWHUG_IZ-13" vertex="1">
          <mxGeometry y="26" width="140" height="26" as="geometry" />
        </mxCell>
        <mxCell id="4Sj0Vmif-qSATWHUG_IZ-17" value="Musica" style="swimlane;fontStyle=0;childLayout=stackLayout;horizontal=1;startSize=26;fillColor=none;horizontalStack=0;resizeParent=1;resizeParentMax=0;resizeLast=0;collapsible=1;marginBottom=0;" parent="1" vertex="1">
          <mxGeometry x="658" y="296" width="140" height="78" as="geometry" />
        </mxCell>
        <mxCell id="4Sj0Vmif-qSATWHUG_IZ-18" value="Nome" style="text;strokeColor=none;fillColor=none;align=left;verticalAlign=top;spacingLeft=4;spacingRight=4;overflow=hidden;rotatable=0;points=[[0,0.5],[1,0.5]];portConstraint=eastwest;" parent="4Sj0Vmif-qSATWHUG_IZ-17" vertex="1">
          <mxGeometry y="26" width="140" height="26" as="geometry" />
        </mxCell>
        <mxCell id="4Sj0Vmif-qSATWHUG_IZ-19" value="Duracao" style="text;strokeColor=none;fillColor=none;align=left;verticalAlign=top;spacingLeft=4;spacingRight=4;overflow=hidden;rotatable=0;points=[[0,0.5],[1,0.5]];portConstraint=eastwest;" parent="4Sj0Vmif-qSATWHUG_IZ-17" vertex="1">
          <mxGeometry y="52" width="140" height="26" as="geometry" />
        </mxCell>
        <mxCell id="4Sj0Vmif-qSATWHUG_IZ-21" value="" style="endArrow=none;html=1;endSize=12;startArrow=none;startSize=14;startFill=0;edgeStyle=orthogonalEdgeStyle;rounded=0;exitX=0;exitY=0.5;exitDx=0;exitDy=0;endFill=0;entryX=1.004;entryY=0.802;entryDx=0;entryDy=0;entryPerimeter=0;" parent="1" edge="1" target="4Sj0Vmif-qSATWHUG_IZ-3">
          <mxGeometry relative="1" as="geometry">
            <mxPoint x="648" y="551.5" as="sourcePoint" />
            <mxPoint x="465" y="550" as="targetPoint" />
            <Array as="points">
              <mxPoint x="648" y="547" />
              <mxPoint x="416" y="547" />
            </Array>
          </mxGeometry>
        </mxCell>
        <mxCell id="4Sj0Vmif-qSATWHUG_IZ-23" value="1" style="edgeLabel;resizable=0;html=1;align=right;verticalAlign=top;" parent="4Sj0Vmif-qSATWHUG_IZ-21" connectable="0" vertex="1">
          <mxGeometry x="1" relative="1" as="geometry">
            <mxPoint x="30" y="-25" as="offset" />
          </mxGeometry>
        </mxCell>
        <mxCell id="4Sj0Vmif-qSATWHUG_IZ-24" value="" style="endArrow=none;html=1;endSize=12;startArrow=none;startSize=14;startFill=0;edgeStyle=orthogonalEdgeStyle;rounded=0;endFill=0;entryX=1;entryY=0.5;entryDx=0;entryDy=0;exitX=0;exitY=0.5;exitDx=0;exitDy=0;" parent="1" source="4Sj0Vmif-qSATWHUG_IZ-14" target="4Sj0Vmif-qSATWHUG_IZ-11" edge="1">
          <mxGeometry relative="1" as="geometry">
            <mxPoint x="578" y="88" as="sourcePoint" />
            <mxPoint x="388" y="-16" as="targetPoint" />
            <Array as="points" />
          </mxGeometry>
        </mxCell>
        <mxCell id="4Sj0Vmif-qSATWHUG_IZ-25" value="0..n" style="edgeLabel;resizable=0;html=1;align=left;verticalAlign=top;" parent="4Sj0Vmif-qSATWHUG_IZ-24" connectable="0" vertex="1">
          <mxGeometry x="-1" relative="1" as="geometry">
            <mxPoint x="-40" y="5" as="offset" />
          </mxGeometry>
        </mxCell>
        <mxCell id="4Sj0Vmif-qSATWHUG_IZ-26" value="1" style="edgeLabel;resizable=0;html=1;align=right;verticalAlign=top;" parent="4Sj0Vmif-qSATWHUG_IZ-24" connectable="0" vertex="1">
          <mxGeometry x="1" relative="1" as="geometry">
            <mxPoint x="31" y="-35" as="offset" />
          </mxGeometry>
        </mxCell>
        <mxCell id="4Sj0Vmif-qSATWHUG_IZ-27" value="" style="endArrow=none;html=1;endSize=12;startArrow=none;startSize=14;startFill=0;edgeStyle=orthogonalEdgeStyle;rounded=0;endFill=0;entryX=0.5;entryY=1;entryDx=0;entryDy=0;exitX=0.5;exitY=0;exitDx=0;exitDy=0;" parent="1" source="4Sj0Vmif-qSATWHUG_IZ-17" target="4Sj0Vmif-qSATWHUG_IZ-13" edge="1">
          <mxGeometry relative="1" as="geometry">
            <mxPoint x="738" y="256" as="sourcePoint" />
            <mxPoint x="728" y="126" as="targetPoint" />
            <Array as="points">
              <mxPoint x="728" y="276" />
              <mxPoint x="728" y="276" />
            </Array>
          </mxGeometry>
        </mxCell>
        <mxCell id="4Sj0Vmif-qSATWHUG_IZ-28" value="1..n" style="edgeLabel;resizable=0;html=1;align=left;verticalAlign=top;" parent="4Sj0Vmif-qSATWHUG_IZ-27" connectable="0" vertex="1">
          <mxGeometry x="-1" relative="1" as="geometry">
            <mxPoint x="-30" y="-40" as="offset" />
          </mxGeometry>
        </mxCell>
        <mxCell id="4Sj0Vmif-qSATWHUG_IZ-29" value="1" style="edgeLabel;resizable=0;html=1;align=right;verticalAlign=top;" parent="4Sj0Vmif-qSATWHUG_IZ-27" connectable="0" vertex="1">
          <mxGeometry x="1" relative="1" as="geometry">
            <mxPoint x="18" y="6" as="offset" />
          </mxGeometry>
        </mxCell>
        <mxCell id="4d-j6Ib5iY2ZQ5GPLnCa-49" value="1..n" style="edgeLabel;resizable=0;html=1;align=left;verticalAlign=top;" connectable="0" vertex="1" parent="4Sj0Vmif-qSATWHUG_IZ-27">
          <mxGeometry x="-1" relative="1" as="geometry">
            <mxPoint x="-568" y="274" as="offset" />
          </mxGeometry>
        </mxCell>
        <mxCell id="4Sj0Vmif-qSATWHUG_IZ-30" value="" style="endArrow=none;html=1;endSize=12;startArrow=none;startSize=14;startFill=0;edgeStyle=orthogonalEdgeStyle;rounded=0;endFill=0;entryX=0.492;entryY=1.143;entryDx=0;entryDy=0;entryPerimeter=0;exitX=0.564;exitY=-0.017;exitDx=0;exitDy=0;exitPerimeter=0;" parent="1" target="4Sj0Vmif-qSATWHUG_IZ-19" edge="1" source="4Sj0Vmif-qSATWHUG_IZ-5">
          <mxGeometry relative="1" as="geometry">
            <mxPoint x="698" y="456" as="sourcePoint" />
            <mxPoint x="588" y="276" as="targetPoint" />
            <Array as="points">
              <mxPoint x="727" y="406" />
              <mxPoint x="727" y="406" />
            </Array>
          </mxGeometry>
        </mxCell>
        <mxCell id="4Sj0Vmif-qSATWHUG_IZ-31" value="0..n" style="edgeLabel;resizable=0;html=1;align=left;verticalAlign=top;" parent="4Sj0Vmif-qSATWHUG_IZ-30" connectable="0" vertex="1">
          <mxGeometry x="-1" relative="1" as="geometry">
            <mxPoint x="-29" y="-38" as="offset" />
          </mxGeometry>
        </mxCell>
        <mxCell id="4Sj0Vmif-qSATWHUG_IZ-32" value="0..n" style="edgeLabel;resizable=0;html=1;align=right;verticalAlign=top;" parent="4Sj0Vmif-qSATWHUG_IZ-30" connectable="0" vertex="1">
          <mxGeometry x="1" relative="1" as="geometry">
            <mxPoint x="31" y="9" as="offset" />
          </mxGeometry>
        </mxCell>
        <mxCell id="4Sj0Vmif-qSATWHUG_IZ-33" value="0..n" style="edgeLabel;resizable=0;html=1;align=right;verticalAlign=top;" parent="1" connectable="0" vertex="1">
          <mxGeometry x="627.9999999846154" y="554.9980000000003" as="geometry" />
        </mxCell>
        <mxCell id="4d-j6Ib5iY2ZQ5GPLnCa-4" style="edgeStyle=none;curved=1;rounded=0;orthogonalLoop=1;jettySize=auto;html=1;exitX=0.5;exitY=0;exitDx=0;exitDy=0;fontSize=12;startSize=8;endSize=8;" edge="1" parent="1" source="4Sj0Vmif-qSATWHUG_IZ-1" target="4Sj0Vmif-qSATWHUG_IZ-1">
          <mxGeometry relative="1" as="geometry" />
        </mxCell>
        <mxCell id="4d-j6Ib5iY2ZQ5GPLnCa-5" value="Cartao" style="swimlane;fontStyle=0;childLayout=stackLayout;horizontal=1;startSize=26;fillColor=none;horizontalStack=0;resizeParent=1;resizeParentMax=0;resizeLast=0;collapsible=1;marginBottom=0;" vertex="1" parent="1">
          <mxGeometry x="15" y="502" width="140" height="104" as="geometry" />
        </mxCell>
        <mxCell id="4d-j6Ib5iY2ZQ5GPLnCa-6" value="Ativo" style="text;strokeColor=none;fillColor=none;align=left;verticalAlign=top;spacingLeft=4;spacingRight=4;overflow=hidden;rotatable=0;points=[[0,0.5],[1,0.5]];portConstraint=eastwest;" vertex="1" parent="4d-j6Ib5iY2ZQ5GPLnCa-5">
          <mxGeometry y="26" width="140" height="26" as="geometry" />
        </mxCell>
        <mxCell id="4d-j6Ib5iY2ZQ5GPLnCa-7" value="Numero" style="text;strokeColor=none;fillColor=none;align=left;verticalAlign=top;spacingLeft=4;spacingRight=4;overflow=hidden;rotatable=0;points=[[0,0.5],[1,0.5]];portConstraint=eastwest;" vertex="1" parent="4d-j6Ib5iY2ZQ5GPLnCa-5">
          <mxGeometry y="52" width="140" height="26" as="geometry" />
        </mxCell>
        <mxCell id="4d-j6Ib5iY2ZQ5GPLnCa-8" value="Limite" style="text;strokeColor=none;fillColor=none;align=left;verticalAlign=top;spacingLeft=4;spacingRight=4;overflow=hidden;rotatable=0;points=[[0,0.5],[1,0.5]];portConstraint=eastwest;" vertex="1" parent="4d-j6Ib5iY2ZQ5GPLnCa-5">
          <mxGeometry y="78" width="140" height="26" as="geometry" />
        </mxCell>
        <mxCell id="4d-j6Ib5iY2ZQ5GPLnCa-10" value="Assinatura" style="swimlane;fontStyle=0;childLayout=stackLayout;horizontal=1;startSize=26;fillColor=none;horizontalStack=0;resizeParent=1;resizeParentMax=0;resizeLast=0;collapsible=1;marginBottom=0;" vertex="1" parent="1">
          <mxGeometry x="273" y="730" width="140" height="78" as="geometry" />
        </mxCell>
        <mxCell id="4d-j6Ib5iY2ZQ5GPLnCa-11" value="Ativo" style="text;strokeColor=none;fillColor=none;align=left;verticalAlign=top;spacingLeft=4;spacingRight=4;overflow=hidden;rotatable=0;points=[[0,0.5],[1,0.5]];portConstraint=eastwest;" vertex="1" parent="4d-j6Ib5iY2ZQ5GPLnCa-10">
          <mxGeometry y="26" width="140" height="26" as="geometry" />
        </mxCell>
        <mxCell id="4d-j6Ib5iY2ZQ5GPLnCa-12" value="DtAtivacao" style="text;strokeColor=none;fillColor=none;align=left;verticalAlign=top;spacingLeft=4;spacingRight=4;overflow=hidden;rotatable=0;points=[[0,0.5],[1,0.5]];portConstraint=eastwest;" vertex="1" parent="4d-j6Ib5iY2ZQ5GPLnCa-10">
          <mxGeometry y="52" width="140" height="26" as="geometry" />
        </mxCell>
        <mxCell id="4d-j6Ib5iY2ZQ5GPLnCa-15" value="Notificacao" style="swimlane;fontStyle=0;childLayout=stackLayout;horizontal=1;startSize=26;fillColor=none;horizontalStack=0;resizeParent=1;resizeParentMax=0;resizeLast=0;collapsible=1;marginBottom=0;" vertex="1" parent="1">
          <mxGeometry x="273" y="235" width="140" height="130" as="geometry" />
        </mxCell>
        <mxCell id="4d-j6Ib5iY2ZQ5GPLnCa-16" value="DtNotificacao" style="text;strokeColor=none;fillColor=none;align=left;verticalAlign=top;spacingLeft=4;spacingRight=4;overflow=hidden;rotatable=0;points=[[0,0.5],[1,0.5]];portConstraint=eastwest;" vertex="1" parent="4d-j6Ib5iY2ZQ5GPLnCa-15">
          <mxGeometry y="26" width="140" height="26" as="geometry" />
        </mxCell>
        <mxCell id="4d-j6Ib5iY2ZQ5GPLnCa-17" value="Mensagem" style="text;strokeColor=none;fillColor=none;align=left;verticalAlign=top;spacingLeft=4;spacingRight=4;overflow=hidden;rotatable=0;points=[[0,0.5],[1,0.5]];portConstraint=eastwest;" vertex="1" parent="4d-j6Ib5iY2ZQ5GPLnCa-15">
          <mxGeometry y="52" width="140" height="26" as="geometry" />
        </mxCell>
        <mxCell id="4d-j6Ib5iY2ZQ5GPLnCa-18" value="Titulo" style="text;strokeColor=none;fillColor=none;align=left;verticalAlign=top;spacingLeft=4;spacingRight=4;overflow=hidden;rotatable=0;points=[[0,0.5],[1,0.5]];portConstraint=eastwest;" vertex="1" parent="4d-j6Ib5iY2ZQ5GPLnCa-15">
          <mxGeometry y="78" width="140" height="26" as="geometry" />
        </mxCell>
        <mxCell id="4d-j6Ib5iY2ZQ5GPLnCa-19" value="TipoNotificacao" style="text;strokeColor=none;fillColor=none;align=left;verticalAlign=top;spacingLeft=4;spacingRight=4;overflow=hidden;rotatable=0;points=[[0,0.5],[1,0.5]];portConstraint=eastwest;" vertex="1" parent="4d-j6Ib5iY2ZQ5GPLnCa-15">
          <mxGeometry y="104" width="140" height="26" as="geometry" />
        </mxCell>
        <mxCell id="4d-j6Ib5iY2ZQ5GPLnCa-23" value="" style="endArrow=none;html=1;endSize=12;startArrow=none;startSize=14;startFill=0;edgeStyle=orthogonalEdgeStyle;rounded=0;entryX=0.5;entryY=0;entryDx=0;entryDy=0;endFill=0;exitX=0.497;exitY=1.129;exitDx=0;exitDy=0;exitPerimeter=0;" edge="1" parent="1" source="4d-j6Ib5iY2ZQ5GPLnCa-19" target="4Sj0Vmif-qSATWHUG_IZ-1">
          <mxGeometry relative="1" as="geometry">
            <mxPoint x="345" y="385" as="sourcePoint" />
            <mxPoint x="-15" y="392" as="targetPoint" />
            <Array as="points">
              <mxPoint x="345" y="368" />
            </Array>
          </mxGeometry>
        </mxCell>
        <mxCell id="4d-j6Ib5iY2ZQ5GPLnCa-24" value="1" style="edgeLabel;resizable=0;html=1;align=right;verticalAlign=top;" connectable="0" vertex="1" parent="4d-j6Ib5iY2ZQ5GPLnCa-23">
          <mxGeometry x="1" relative="1" as="geometry">
            <mxPoint x="-10" y="-31" as="offset" />
          </mxGeometry>
        </mxCell>
        <mxCell id="4d-j6Ib5iY2ZQ5GPLnCa-48" value="1" style="edgeLabel;resizable=0;html=1;align=right;verticalAlign=top;" connectable="0" vertex="1" parent="4d-j6Ib5iY2ZQ5GPLnCa-23">
          <mxGeometry x="1" relative="1" as="geometry">
            <mxPoint x="-79" y="62" as="offset" />
          </mxGeometry>
        </mxCell>
        <mxCell id="4d-j6Ib5iY2ZQ5GPLnCa-25" value="0..n" style="edgeLabel;resizable=0;html=1;align=right;verticalAlign=top;" connectable="0" vertex="1" parent="1">
          <mxGeometry x="374.99999998461544" y="364.9980000000003" as="geometry" />
        </mxCell>
        <mxCell id="4d-j6Ib5iY2ZQ5GPLnCa-26" value="Plano" style="swimlane;fontStyle=0;childLayout=stackLayout;horizontal=1;startSize=26;fillColor=none;horizontalStack=0;resizeParent=1;resizeParentMax=0;resizeLast=0;collapsible=1;marginBottom=0;" vertex="1" parent="1">
          <mxGeometry x="531" y="733" width="140" height="104" as="geometry" />
        </mxCell>
        <mxCell id="4d-j6Ib5iY2ZQ5GPLnCa-27" value="Nome" style="text;strokeColor=none;fillColor=none;align=left;verticalAlign=top;spacingLeft=4;spacingRight=4;overflow=hidden;rotatable=0;points=[[0,0.5],[1,0.5]];portConstraint=eastwest;" vertex="1" parent="4d-j6Ib5iY2ZQ5GPLnCa-26">
          <mxGeometry y="26" width="140" height="26" as="geometry" />
        </mxCell>
        <mxCell id="4d-j6Ib5iY2ZQ5GPLnCa-28" value="Descricao" style="text;strokeColor=none;fillColor=none;align=left;verticalAlign=top;spacingLeft=4;spacingRight=4;overflow=hidden;rotatable=0;points=[[0,0.5],[1,0.5]];portConstraint=eastwest;" vertex="1" parent="4d-j6Ib5iY2ZQ5GPLnCa-26">
          <mxGeometry y="52" width="140" height="26" as="geometry" />
        </mxCell>
        <mxCell id="4d-j6Ib5iY2ZQ5GPLnCa-33" value="Valor" style="text;strokeColor=none;fillColor=none;align=left;verticalAlign=top;spacingLeft=4;spacingRight=4;overflow=hidden;rotatable=0;points=[[0,0.5],[1,0.5]];portConstraint=eastwest;" vertex="1" parent="4d-j6Ib5iY2ZQ5GPLnCa-26">
          <mxGeometry y="78" width="140" height="26" as="geometry" />
        </mxCell>
        <mxCell id="4d-j6Ib5iY2ZQ5GPLnCa-29" value="" style="endArrow=none;html=1;endSize=12;startArrow=none;startSize=14;startFill=0;edgeStyle=orthogonalEdgeStyle;rounded=0;exitX=0.5;exitY=0;exitDx=0;exitDy=0;endFill=0;entryX=0.5;entryY=1.154;entryDx=0;entryDy=0;entryPerimeter=0;" edge="1" parent="1" source="4d-j6Ib5iY2ZQ5GPLnCa-10" target="4d-j6Ib5iY2ZQ5GPLnCa-1">
          <mxGeometry relative="1" as="geometry">
            <mxPoint x="575" y="662.5" as="sourcePoint" />
            <mxPoint x="343" y="660" as="targetPoint" />
            <Array as="points">
              <mxPoint x="345" y="730" />
            </Array>
          </mxGeometry>
        </mxCell>
        <mxCell id="4d-j6Ib5iY2ZQ5GPLnCa-30" value="1" style="edgeLabel;resizable=0;html=1;align=right;verticalAlign=top;" connectable="0" vertex="1" parent="4d-j6Ib5iY2ZQ5GPLnCa-29">
          <mxGeometry x="1" relative="1" as="geometry">
            <mxPoint x="23" as="offset" />
          </mxGeometry>
        </mxCell>
        <mxCell id="4d-j6Ib5iY2ZQ5GPLnCa-41" value="1" style="edgeLabel;resizable=0;html=1;align=right;verticalAlign=top;" connectable="0" vertex="1" parent="4d-j6Ib5iY2ZQ5GPLnCa-29">
          <mxGeometry x="1" relative="1" as="geometry">
            <mxPoint x="-12" y="89" as="offset" />
          </mxGeometry>
        </mxCell>
        <mxCell id="4d-j6Ib5iY2ZQ5GPLnCa-31" value="" style="endArrow=none;html=1;endSize=12;startArrow=none;startSize=14;startFill=0;edgeStyle=orthogonalEdgeStyle;rounded=0;endFill=0;entryX=1;entryY=0.5;entryDx=0;entryDy=0;exitX=0;exitY=0.5;exitDx=0;exitDy=0;" edge="1" parent="1" source="4d-j6Ib5iY2ZQ5GPLnCa-27" target="4d-j6Ib5iY2ZQ5GPLnCa-11">
          <mxGeometry relative="1" as="geometry">
            <mxPoint x="523" y="780" as="sourcePoint" />
            <mxPoint x="433" y="770" as="targetPoint" />
            <Array as="points">
              <mxPoint x="531" y="769" />
            </Array>
          </mxGeometry>
        </mxCell>
        <mxCell id="4d-j6Ib5iY2ZQ5GPLnCa-32" value="1" style="edgeLabel;resizable=0;html=1;align=right;verticalAlign=top;" connectable="0" vertex="1" parent="4d-j6Ib5iY2ZQ5GPLnCa-31">
          <mxGeometry x="1" relative="1" as="geometry">
            <mxPoint x="30" y="-25" as="offset" />
          </mxGeometry>
        </mxCell>
        <mxCell id="4d-j6Ib5iY2ZQ5GPLnCa-34" value="1" style="edgeLabel;resizable=0;html=1;align=right;verticalAlign=top;" connectable="0" vertex="1" parent="4d-j6Ib5iY2ZQ5GPLnCa-31">
          <mxGeometry x="1" relative="1" as="geometry">
            <mxPoint x="110" y="1" as="offset" />
          </mxGeometry>
        </mxCell>
        <mxCell id="4d-j6Ib5iY2ZQ5GPLnCa-35" value="Transacao" style="swimlane;fontStyle=0;childLayout=stackLayout;horizontal=1;startSize=26;fillColor=none;horizontalStack=0;resizeParent=1;resizeParentMax=0;resizeLast=0;collapsible=1;marginBottom=0;" vertex="1" parent="1">
          <mxGeometry x="22" y="235" width="140" height="130" as="geometry" />
        </mxCell>
        <mxCell id="4d-j6Ib5iY2ZQ5GPLnCa-36" value="DtTransacao" style="text;strokeColor=none;fillColor=none;align=left;verticalAlign=top;spacingLeft=4;spacingRight=4;overflow=hidden;rotatable=0;points=[[0,0.5],[1,0.5]];portConstraint=eastwest;" vertex="1" parent="4d-j6Ib5iY2ZQ5GPLnCa-35">
          <mxGeometry y="26" width="140" height="26" as="geometry" />
        </mxCell>
        <mxCell id="4d-j6Ib5iY2ZQ5GPLnCa-37" value="Descricao" style="text;strokeColor=none;fillColor=none;align=left;verticalAlign=top;spacingLeft=4;spacingRight=4;overflow=hidden;rotatable=0;points=[[0,0.5],[1,0.5]];portConstraint=eastwest;" vertex="1" parent="4d-j6Ib5iY2ZQ5GPLnCa-35">
          <mxGeometry y="52" width="140" height="26" as="geometry" />
        </mxCell>
        <mxCell id="4d-j6Ib5iY2ZQ5GPLnCa-38" value="Valor" style="text;strokeColor=none;fillColor=none;align=left;verticalAlign=top;spacingLeft=4;spacingRight=4;overflow=hidden;rotatable=0;points=[[0,0.5],[1,0.5]];portConstraint=eastwest;" vertex="1" parent="4d-j6Ib5iY2ZQ5GPLnCa-35">
          <mxGeometry y="78" width="140" height="26" as="geometry" />
        </mxCell>
        <mxCell id="4d-j6Ib5iY2ZQ5GPLnCa-39" value="Merchant" style="text;strokeColor=none;fillColor=none;align=left;verticalAlign=top;spacingLeft=4;spacingRight=4;overflow=hidden;rotatable=0;points=[[0,0.5],[1,0.5]];portConstraint=eastwest;" vertex="1" parent="4d-j6Ib5iY2ZQ5GPLnCa-35">
          <mxGeometry y="104" width="140" height="26" as="geometry" />
        </mxCell>
        <mxCell id="4d-j6Ib5iY2ZQ5GPLnCa-42" value="" style="endArrow=none;html=1;endSize=12;startArrow=none;startSize=14;startFill=0;edgeStyle=orthogonalEdgeStyle;rounded=0;endFill=0;entryX=0.445;entryY=0.984;entryDx=0;entryDy=0;entryPerimeter=0;exitX=0.5;exitY=0;exitDx=0;exitDy=0;" edge="1" parent="1" source="4d-j6Ib5iY2ZQ5GPLnCa-5" target="4d-j6Ib5iY2ZQ5GPLnCa-39">
          <mxGeometry relative="1" as="geometry">
            <mxPoint x="90" y="480" as="sourcePoint" />
            <mxPoint x="82" y="374" as="targetPoint" />
            <Array as="points">
              <mxPoint x="85" y="470" />
              <mxPoint x="86" y="365" />
            </Array>
          </mxGeometry>
        </mxCell>
        <mxCell id="4d-j6Ib5iY2ZQ5GPLnCa-43" value="1" style="edgeLabel;resizable=0;html=1;align=right;verticalAlign=top;" connectable="0" vertex="1" parent="4d-j6Ib5iY2ZQ5GPLnCa-42">
          <mxGeometry x="1" relative="1" as="geometry">
            <mxPoint x="23" as="offset" />
          </mxGeometry>
        </mxCell>
        <mxCell id="4d-j6Ib5iY2ZQ5GPLnCa-44" value="1" style="edgeLabel;resizable=0;html=1;align=right;verticalAlign=top;" connectable="0" vertex="1" parent="4d-j6Ib5iY2ZQ5GPLnCa-42">
          <mxGeometry x="1" relative="1" as="geometry">
            <mxPoint x="-12" y="103" as="offset" />
          </mxGeometry>
        </mxCell>
        <mxCell id="4d-j6Ib5iY2ZQ5GPLnCa-47" value="" style="endArrow=none;html=1;rounded=0;fontSize=12;startSize=8;endSize=8;curved=1;exitX=1;exitY=0.5;exitDx=0;exitDy=0;entryX=0;entryY=0.5;entryDx=0;entryDy=0;" edge="1" parent="1" source="4d-j6Ib5iY2ZQ5GPLnCa-7" target="4Sj0Vmif-qSATWHUG_IZ-4">
          <mxGeometry width="50" height="50" relative="1" as="geometry">
            <mxPoint x="320" y="620" as="sourcePoint" />
            <mxPoint x="370" y="570" as="targetPoint" />
          </mxGeometry>
        </mxCell>
      </root>
    </mxGraphModel>
  </diagram>
</mxfile>
